<svg width="44" height="39" viewBox="0 0 44 39" fill="none" xmlns="http://www.w3.org/2000/svg">
<path d="M43.3206 1.4923C42.7831 0.816754 41.9781 0.444824 41.0536 0.444824C40.5511 0.444824 40.0187 0.553505 39.4715 0.768451L2.22633 15.381C0.249764 16.1563 -0.0164409 17.3197 0.000679409 17.9441C0.0177997 18.5686 0.347786 19.7148 2.36396 20.3741C2.37605 20.3779 2.38813 20.3817 2.40022 20.3851L10.1259 22.6574L14.3039 34.9366C14.8736 36.6107 16.1522 37.6505 17.6414 37.6505C18.5803 37.6505 19.5038 37.2462 20.3121 36.4816L25.0907 31.9595L32.0218 37.6954C32.0225 37.6961 32.0235 37.6964 32.0241 37.6971L32.0899 37.7516C32.096 37.7565 32.1024 37.7616 32.1084 37.7665C32.8788 38.3806 33.7197 38.7049 34.5412 38.7053H34.5415C36.1465 38.7053 37.4244 37.4842 37.7967 35.5949L43.8993 4.62472C44.1444 3.38162 43.9389 2.26928 43.3206 1.4923ZM12.7104 22.2258L27.6155 14.3998L18.3346 24.5354C18.1825 24.7013 18.0747 24.9045 18.0217 25.1257L16.2321 32.576L12.7104 22.2258ZM18.5655 34.5323C18.5038 34.5906 18.4417 34.6427 18.3796 34.6906L20.0399 27.7792L23.0601 30.2789L18.5655 34.5323ZM41.3725 4.09857L35.27 35.0691C35.2112 35.3655 35.0236 36.0552 34.5412 36.0552C34.3028 36.0552 34.0034 35.9217 33.6969 35.6791L25.843 29.1797C25.842 29.1786 25.8407 29.1776 25.8393 29.1769L21.1661 25.3092L34.5875 10.6518C35.0172 10.1826 35.0561 9.46394 34.6798 8.94849C34.3032 8.43303 33.6207 8.27087 33.0624 8.56414L10.9879 20.1547L3.1572 17.852L40.391 3.24396C40.7055 3.12044 40.9251 3.09456 41.0536 3.09456C41.1325 3.09456 41.2728 3.10422 41.3249 3.17012C41.3933 3.25603 41.4806 3.54895 41.3725 4.09857Z" fill="#2352DE"/>
</svg>
